<svg xmlns="http://www.w3.org/2000/svg" width="35" height="35" viewBox="0 0 35 35"><defs><style>.a,.b{fill:none;stroke:#263d4c;stroke-miterlimit:22.926;stroke-width:1.066px;}.a{fill-rule:evenodd;}</style></defs><g transform="translate(-249.424 -183.28)"><path class="a" d="M279.359,212.347A4.076,4.076,0,0,0,277.844,210c-2.234-1.588-5.659-.745-7.793-3.574,0,0-.794-.893.992-3.077s1.936-5.659,1.489-8.339a5.755,5.755,0,0,0-11.217,0c-.447,2.68-.3,6.155,1.489,8.339s.993,3.077.993,3.077c-2.135,2.829-5.559,1.986-7.793,3.574a4.066,4.066,0,0,0-1.51,2.328"/><circle class="b" cx="16.967" cy="16.967" r="16.967" transform="translate(249.957 183.813)"/></g></svg>